<?xml version="1.0" encoding="utf-8"?>
<!-- Generator: Adobe Illustrator 24.0.0, SVG Export Plug-In . SVG Version: 6.00 Build 0)  -->
<svg version="1.1" id="Layer_1" xmlns="http://www.w3.org/2000/svg" xmlns:xlink="http://www.w3.org/1999/xlink" x="0px" y="0px"
	 viewBox="0 0 600 138.6" style="enable-background:new 0 0 600 138.6;" xml:space="preserve">
<style type="text/css">
	.st0{fill:#FFFFFF;}
</style>
<g>
	<path class="st0" d="M111.18,119.11L77.18,14.93h14.53l16.23,51.32c4.48,14.07,8.35,26.74,11.13,38.95h0.31
		c2.94-12.06,7.26-25.2,11.9-38.8l17.62-51.47h14.38l-37.25,104.18H111.18z"/>
	<path class="st0" d="M231.6,119.11L218.3,96.08c-5.41-8.81-8.81-14.53-12.06-20.56h-0.31c-2.94,6.03-5.87,11.59-11.28,20.71
		l-12.52,22.88h-15.46l31.84-52.71l-30.6-51.47h15.61l13.76,24.42c3.86,6.8,6.8,12.06,9.58,17.62h0.46
		c2.94-6.18,5.56-10.97,9.43-17.62l14.22-24.42h15.46l-31.69,50.7l32.46,53.48H231.6z"/>
	<path class="st0" d="M287.09,119.11L253.08,14.93h14.53l16.23,51.32c4.48,14.07,8.35,26.74,11.13,38.95h0.31
		c2.94-12.06,7.26-25.2,11.9-38.8l17.62-51.47h14.38l-37.25,104.18H287.09z"/>
	<path class="st0" d="M407.5,119.11l-13.29-23.03c-5.41-8.81-8.81-14.53-12.06-20.56h-0.31c-2.94,6.03-5.87,11.59-11.28,20.71
		l-12.52,22.88h-15.46l31.84-52.71l-30.61-51.47h15.61l13.76,24.42c3.86,6.8,6.8,12.06,9.58,17.62h0.46
		c2.94-6.18,5.56-10.97,9.43-17.62l14.22-24.42h15.46l-31.69,50.7l32.46,53.48H407.5z"/>
	<path class="st0" d="M462.99,119.11L428.99,14.93h14.53l16.23,51.32c4.48,14.07,8.35,26.74,11.13,38.95h0.31
		c2.94-12.06,7.26-25.2,11.9-38.8l17.62-51.47h14.38l-37.25,104.18H462.99z"/>
</g>
</svg>
