<?xml version="1.0" encoding="utf-8"?>
<!-- Generator: Adobe Illustrator 24.0.0, SVG Export Plug-In . SVG Version: 6.00 Build 0)  -->
<svg version="1.1" id="Layer_1" xmlns="http://www.w3.org/2000/svg" xmlns:xlink="http://www.w3.org/1999/xlink" x="0px" y="0px"
	 viewBox="0 0 525.57 57.96" style="enable-background:new 0 0 525.57 57.96;" xml:space="preserve">
<style type="text/css">
	.st0{fill:#F7FEFF;}
</style>
<g>
	<path class="st0" d="M17.39,8.93l8.93,29.33l9.8-31.24c0.5-1.62,1.37-2.43,2.61-2.43h0.29c0.39,0,0.89,0.06,1.51,0.17
		c0.77,0.19,1.27,0.29,1.51,0.29c0.62,0.08,1.47,0.12,2.55,0.12c1.16,0,2.07-0.06,2.72-0.17l2.03-0.35c0.12-0.04,0.35-0.06,0.7-0.06
		c1.78,0,2.66,0.68,2.66,2.03c0,1.24-0.62,1.85-1.85,1.85c-0.31,0-0.76-0.05-1.36-0.14c-0.6-0.1-1.05-0.14-1.36-0.14
		c-1.97,0-2.96,1.45-2.96,4.35v4.06v5.1v4.93v9.16c0,2.9,0.97,4.35,2.9,4.35c0.39,0,0.81-0.06,1.27-0.17
		c0.85-0.08,1.35-0.12,1.51-0.12c1.24,0,1.85,0.62,1.85,1.85c0,1.39-0.83,2.09-2.49,2.09c0.08,0-0.21-0.04-0.87-0.12
		c-2.66-0.31-4.92-0.46-6.78-0.46c-1.82,0-3.55,0.14-5.21,0.41c-0.7,0.12-1.32,0.17-1.85,0.17c-1.51,0-2.26-0.65-2.26-1.94
		c0-1.33,0.78-2,2.34-2c0.39,0,0.68,0.03,0.88,0.08c0.86,0.1,1.36,0.16,1.52,0.16c1.4,0,2.28-1.45,2.63-4.34
		c0.08-0.62,0.12-2.58,0.12-5.9c0-1.27,0.04-3.12,0.12-5.55v-5.21V8.81c0-0.23-0.1-0.35-0.29-0.35c-0.12,0-0.23,0.12-0.35,0.35
		L29.5,41.85c-0.46,1.47-1.55,2.2-3.24,2.2c-1.01,0-1.75-0.14-2.23-0.43c-0.48-0.29-0.86-0.88-1.13-1.76L12.4,8.81
		C12.29,8.58,12.15,8.46,12,8.46c-0.15,0-0.23,0.12-0.23,0.35l0.35,26.8c0.04,2.81,0.81,4.21,2.32,4.21c0.43,0,1,0,1.74,0h0.69
		c1.51,0,2.26,0.66,2.26,1.97c0,1.31-0.77,1.97-2.32,1.97c-0.27,0-0.68-0.04-1.22-0.12c-0.85-0.12-1.76-0.25-2.72-0.41
		c-0.77-0.12-1.76-0.17-2.95-0.17c-2.13,0-3.5,0.06-4.12,0.17L3.36,43.7c-0.08,0-0.19,0.02-0.35,0.06c-0.15,0-0.27,0-0.35,0
		C0.89,43.76,0,43.08,0,41.73c0-0.54,0.17-0.99,0.52-1.36c0.35-0.37,0.77-0.55,1.27-0.55c0.43,0,0.93,0.06,1.51,0.17
		c0.58,0.12,1,0.17,1.27,0.17c1.97,0,2.96-1.45,2.96-4.35v-23.3c0-2.9-0.98-4.35-2.96-4.35c-0.31,0-0.77,0.05-1.39,0.14
		C2.57,8.41,2.1,8.46,1.79,8.46C0.6,8.46,0,7.84,0,6.61c0-1.35,0.87-2.03,2.61-2.03c0.15,0,0.4,0.02,0.75,0.06l2.03,0.23
		c1,0.12,1.95,0.17,2.84,0.17c0.73,0,1.73-0.08,2.99-0.23c1.26-0.15,2.17-0.23,2.75-0.23c1.51,0,2.51,0.95,3.01,2.84L17.39,8.93z"/>
	<path class="st0" d="M65.44,26.66v7.53c0,1.93,0.02,3.07,0.06,3.42c0.19,1.74,0.71,2.61,1.56,2.61c0.19,0,0.68-0.1,1.45-0.29
		c0.19-0.08,0.48-0.12,0.87-0.12c1.47,0,2.2,0.64,2.2,1.91c0,0.54-0.24,1.01-0.73,1.39c-0.48,0.39-1.1,0.58-1.83,0.58
		c-0.62,0-1.56-0.09-2.82-0.26c-1.26-0.17-2.2-0.26-2.82-0.26c-1.01,0-2.13,0.08-3.37,0.23c-1.51,0.19-2.52,0.29-3.02,0.29
		c-1.55,0-2.33-0.66-2.33-1.97c0-1.27,0.66-1.91,1.99-1.91c0.31,0,0.77,0.06,1.37,0.17c0.6,0.12,1.06,0.17,1.38,0.17
		c0.93,0,1.5-1.24,1.7-3.71c0-0.15,0-1.83,0-5.04v-4.75c0-3.21,0-4.89,0-5.04c-0.2-2.43-0.78-3.65-1.75-3.65
		c-0.31,0-0.75,0.07-1.32,0.2c-0.57,0.14-0.98,0.2-1.26,0.2c-1.4,0-2.11-0.62-2.11-1.86c0-1.31,0.85-1.97,2.55-1.97
		c0.73,0,1.26,0.02,1.56,0.06c1.24,0.15,2.03,0.23,2.38,0.23c0.31,0,0.78-0.05,1.42-0.14c0.64-0.1,1.11-0.14,1.42-0.14
		c1.12,0,1.68,0.75,1.68,2.26c0,0.16-0.02,0.39-0.05,0.7c-0.03,0.31-0.05,0.54-0.05,0.7c-0.03,0.31-0.06,1.51-0.09,3.59
		C65.45,23.38,65.44,25,65.44,26.66z M62.42,11.48c-0.89,0-1.65-0.32-2.29-0.96c-0.64-0.64-0.96-1.4-0.96-2.29
		c0-0.89,0.32-1.64,0.96-2.26c0.64-0.62,1.4-0.93,2.29-0.93s1.65,0.31,2.29,0.93c0.64,0.62,0.96,1.37,0.96,2.26
		c0,0.89-0.32,1.65-0.96,2.29C64.07,11.16,63.31,11.48,62.42,11.48z"/>
	<path class="st0" d="M82.88,16.26v1.65c2.32-2.94,5.41-4.41,9.27-4.41c2.09,0,4.06,0.53,5.91,1.59c1.85,1.06,3.11,2.39,3.77,3.97
		c0.54,1.31,0.81,3.03,0.81,5.16v11.01c0,1.66,0.02,2.65,0.06,2.96c0.19,1.31,0.72,1.97,1.56,1.97c0.35,0,0.8-0.05,1.36-0.14
		c0.56-0.1,0.96-0.14,1.19-0.14c0.5,0,0.93,0.17,1.3,0.52c0.37,0.35,0.55,0.77,0.55,1.28c0,0.58-0.23,1.06-0.7,1.45
		c-0.46,0.39-1.02,0.58-1.68,0.58c-0.54,0-1.43-0.08-2.67-0.23c-1.24-0.15-2.4-0.23-3.48-0.23c-1,0-1.84,0.04-2.49,0.12
		c-1.93,0.23-2.96,0.35-3.07,0.35c-1.55,0-2.32-0.68-2.32-2.03c0-1.2,0.67-1.8,2.01-1.8c0.32,0,0.67,0.04,1.06,0.12
		c0.75,0.15,1.22,0.23,1.42,0.23c0.94,0,1.46-1.06,1.54-3.19v-2.96v-3.54v-4.4c0-2.05-0.1-3.46-0.29-4.23
		c-0.35-1.47-1.1-2.61-2.25-3.42c-1.27-0.89-2.71-1.33-4.33-1.33c-3.08,0-5.29,1.1-6.64,3.3c-0.92,1.51-1.39,4.08-1.39,7.71v7.71
		c0,1.7,0.12,2.86,0.35,3.48c0.23,0.62,0.66,0.93,1.27,0.93c0.31,0,0.73-0.07,1.27-0.2c0.54-0.13,0.98-0.2,1.33-0.2
		c1.2,0,1.8,0.65,1.8,1.94c0,1.26-0.77,1.88-2.32,1.88c-0.31,0-1.32-0.12-3.01-0.35c-0.85-0.12-1.8-0.17-2.84-0.17
		c-0.81,0-1.89,0.08-3.25,0.23c-1.7,0.19-2.66,0.29-2.9,0.29c-1.62,0-2.43-0.66-2.43-1.97c0-1.24,0.63-1.85,1.89-1.85
		c0.2,0,0.56,0.06,1.09,0.17c0.53,0.12,1.05,0.17,1.56,0.17c1.18,0,1.79-1.12,1.83-3.36v-6.43v-7.01v-2.03
		c-0.08-1.31-0.25-2.21-0.5-2.7c-0.26-0.48-0.7-0.72-1.33-0.72c-0.28,0-0.68,0.05-1.21,0.14c-0.53,0.1-0.93,0.14-1.21,0.14
		c-1.42,0-2.13-0.62-2.13-1.85c0-1.28,0.87-1.91,2.61-1.91c0.23,0,0.43,0.02,0.58,0.06l2.14,0.23c0.62,0,1.16-0.05,1.62-0.14
		c1-0.1,1.52-0.14,1.56-0.14C82.32,14.49,82.88,15.08,82.88,16.26z"/>
	<path class="st0" d="M123.91,13.5c3.83,0,6.69,1.49,8.58,4.46v-5.85c0-1.54-0.04-2.49-0.12-2.84c-0.19-1.2-0.74-1.8-1.62-1.8
		c-0.31,0-0.75,0.06-1.31,0.17c-0.56,0.12-0.99,0.17-1.3,0.17c-1.43,0-2.14-0.62-2.14-1.85c0-1.28,0.97-1.91,2.9-1.91
		c0.31,0,0.87,0.04,1.68,0.12c1.24,0.12,1.87,0.17,1.91,0.17c0.35,0,0.85-0.05,1.51-0.14c0.66-0.1,1.16-0.14,1.51-0.14
		c1.08,0,1.62,0.77,1.62,2.32v0.64c-0.04,0.12-0.08,1.14-0.12,3.08c0,0.23-0.06,1.72-0.17,4.47c-0.08,1.93-0.12,3.41-0.12,4.41v5.69
		v9.69c0.04,2.55,0.16,4.14,0.35,4.76c0.2,0.62,0.67,0.93,1.42,0.93c0.51,0,0.9-0.04,1.18-0.12c0.63-0.08,1.06-0.12,1.3-0.12
		c1.45,0,2.18,0.64,2.18,1.91c0,1.31-0.87,1.97-2.61,1.97c-0.39,0-0.98-0.05-1.77-0.14c-0.79-0.1-1.38-0.14-1.77-0.14
		c-0.12,0-0.56,0.04-1.33,0.12c-0.46,0.12-0.87,0.17-1.22,0.17c-1.04,0-1.56-0.7-1.56-2.09v-0.29v-0.99
		c-2.04,2.74-5.01,4.12-8.9,4.12c-3.93,0-7.09-1.43-9.48-4.29c-2.39-2.86-3.58-6.61-3.58-11.24c0-4.67,1.18-8.41,3.54-11.22
		C116.82,14.91,119.97,13.5,123.91,13.5z M132.26,33.96c0.16-1.28,0.23-2.92,0.23-4.93c0-2.59-0.1-4.35-0.29-5.27
		c-0.35-1.93-1.19-3.44-2.51-4.52c-1.56-1.28-3.35-1.91-5.37-1.91c-2.72,0-4.85,1.02-6.39,3.07c-1.54,2.05-2.3,4.85-2.3,8.4
		c0,3.67,0.8,6.56,2.39,8.66c1.6,2.11,3.77,3.16,6.54,3.16c2.1,0,3.85-0.61,5.25-1.83C131.21,37.59,132.03,35.97,132.26,33.96z"/>
	<path class="st0" d="M155.79,57.96V0h4.29v57.96H155.79z"/>
	<path class="st0" d="M191.92,3.54c3.88,0,7.39,1.45,10.53,4.35c-0.15-0.54-0.23-0.85-0.23-0.93c-0.08-0.77-0.12-1.2-0.12-1.27
		c0-1.28,0.64-1.91,1.91-1.91c1.39,0,2.09,0.83,2.09,2.49c0,0.54-0.02,0.95-0.06,1.22l-0.44,2.78c-0.13,0.81-0.19,1.68-0.19,2.61
		c0,0.73,0.08,2.3,0.23,4.69v0.52c0,1.74-0.72,2.61-2.14,2.61c-1.35,0-2.03-0.95-2.03-2.84v-1.74c0-2.67-0.88-4.77-2.63-6.32
		c-1.75-1.54-4.11-2.32-7.08-2.32c-3.74,0-6.67,1.45-8.79,4.35c-2.12,2.9-3.18,6.88-3.18,11.94c0,5.37,1.09,9.56,3.27,12.58
		c2.18,3.01,5.21,4.52,9.07,4.52c2.97,0,5.27-0.87,6.9-2.62c1.62-1.75,2.43-4.23,2.43-7.45c0-1.32-0.22-2.24-0.67-2.76
		c-0.45-0.52-1.23-0.79-2.35-0.79c-0.31,0-0.75,0.02-1.33,0.06c-0.58,0.04-1.02,0.06-1.33,0.06c-1.85,0-2.78-0.66-2.78-1.97
		c0-1.35,0.79-2.03,2.37-2.03c0.5,0,1.06,0.04,1.68,0.13c2.43,0.34,4.39,0.51,5.85,0.51c1.89,0,3.9-0.17,6.03-0.52
		c0.46-0.08,0.99-0.12,1.56-0.12c1.55,0,2.32,0.64,2.32,1.91c0,0.54-0.2,1.01-0.61,1.39c-0.4,0.39-0.88,0.58-1.42,0.58
		c-0.46,0-0.81,0-1.04,0c-0.08,0-0.21,0-0.4,0c-0.19,0-0.35,0-0.46,0c-1.7,0-2.55,1.88-2.55,5.64v4.61c0,1,0.04,1.9,0.12,2.71
		c0.08,0.81,0.12,1.44,0.12,1.9c0,1.57-0.7,2.36-2.09,2.36c-1.35,0-2.03-0.68-2.03-2.03l0.12-1.39c0.04-0.35,0.08-0.95,0.12-1.8
		c-0.89,1.2-1.58,2.03-2.09,2.49c-2.24,2.01-5.35,3.01-9.33,3.01c-4.98,0-9-1.86-12.06-5.56c-3.05-3.71-4.58-8.56-4.58-14.55
		c0-6.41,1.56-11.53,4.68-15.36C182.44,5.45,186.64,3.54,191.92,3.54z"/>
	<path class="st0" d="M240.76,44.22c-3.17,0-5.12-1.37-5.85-4.12c-1.97,2.9-5.06,4.35-9.27,4.35c-3.13,0-5.63-0.77-7.51-2.32
		c-1.88-1.54-2.81-3.61-2.81-6.2c0-3.21,1.37-5.56,4.11-7.07c1.04-0.58,1.94-0.96,2.7-1.13c0.75-0.17,2.27-0.4,4.55-0.67
		c3.25-0.35,5.36-0.83,6.35-1.45c0.98-0.62,1.48-1.76,1.48-3.42c0-1.58-0.55-2.83-1.65-3.74c-1.1-0.91-2.64-1.36-4.61-1.36
		c-1.74,0-3.36,0.48-4.87,1.45c-0.58,0.39-0.87,0.79-0.87,1.22c0,0.15,0.17,0.35,0.52,0.58c0.54,0.39,0.81,1.04,0.81,1.97
		c0,0.77-0.28,1.41-0.84,1.91c-0.56,0.5-1.27,0.75-2.12,0.75c-1.01,0-1.85-0.35-2.52-1.04c-0.68-0.7-1.02-1.54-1.02-2.55
		c0-2.16,1.07-4.02,3.22-5.56c2.14-1.54,4.74-2.32,7.79-2.32c7.03,0,10.55,3.37,10.55,10.12v11.68c0,1.85,0.04,2.95,0.12,3.3
		c0.23,1.35,0.89,2.02,1.97,2.02c1.35,0,2.03-1.23,2.03-3.68v-2.82c0-1.23,0.59-1.84,1.77-1.84c1.25,0,1.88,0.93,1.88,2.78v0.29v3.3
		C246.6,42.37,244.62,44.22,240.76,44.22z M234.33,32.69v-4.11c-0.85,0.77-1.74,1.31-2.68,1.62c-0.94,0.31-2.63,0.58-5.05,0.81
		c-4.39,0.43-6.58,2.05-6.58,4.87c0,1.47,0.53,2.63,1.59,3.48c1.06,0.85,2.5,1.27,4.32,1.27c2.59,0,4.63-0.7,6.12-2.12
		C233.53,37.1,234.29,35.16,234.33,32.69z"/>
	<path class="st0" d="M264.64,35.47v-3.71c0.04-1.58,0.73-2.38,2.08-2.38c1.35,0,2.03,0.89,2.03,2.67c0,4.21-0.54,7.15-1.61,8.81
		c-1.46,2.24-3.86,3.36-7.2,3.36c-3.07,0-5.26-0.99-6.56-2.96c-0.96-1.43-1.44-3.86-1.44-7.3V20.05c0-0.81-0.37-1.22-1.13-1.22h-1.9
		c-0.63,0-1.16-0.2-1.57-0.61c-0.41-0.41-0.62-0.9-0.62-1.48c0-0.54,0.2-1.02,0.61-1.45c0.41-0.42,0.86-0.64,1.36-0.64h2.26
		c0.66,0,0.98-0.37,0.98-1.1V7.59c0-1.47,0.75-2.2,2.26-2.2c1.39,0,2.09,0.73,2.09,2.2v6.2c0,0.58,0.35,0.87,1.04,0.87h6.32
		c1.47,0,2.2,0.68,2.2,2.03c0,1.43-0.79,2.14-2.38,2.14h-6.38c-0.54,0-0.81,0.41-0.81,1.22v14.26c0,4.06,1.35,6.09,4.05,6.09
		C263.09,40.4,264.52,38.76,264.64,35.47z"/>
	<path class="st0" d="M298.03,26.43c0,1.47-0.1,2.37-0.29,2.7c-0.19,0.33-0.75,0.49-1.68,0.49h-18.43c-0.5,0-0.83,0.07-0.98,0.2
		c-0.15,0.14-0.23,0.36-0.23,0.67c0,2.9,0.87,5.31,2.61,7.25c1.74,1.93,3.9,2.9,6.49,2.9c1.7,0,3.25-0.46,4.67-1.39
		c1.41-0.93,2.33-2.11,2.75-3.54l0.52-1.68c0.27-0.93,0.91-1.39,1.91-1.39c1.43,0,2.14,0.73,2.14,2.2c0,2.51-1.27,4.74-3.82,6.69
		c-2.55,1.95-5.45,2.93-8.7,2.93c-4.06,0-7.28-1.36-9.68-4.09c-2.4-2.72-3.59-6.38-3.59-10.98c0-4.71,1.27-8.54,3.83-11.48
		c2.55-2.94,5.87-4.41,9.97-4.41c3.63,0,6.63,1.22,8.98,3.65C296.85,19.59,298.03,22.68,298.03,26.43z M276.99,24.92
		c0,0.54,0.43,0.81,1.28,0.81h13.85c0.81,0,1.22-0.27,1.22-0.81c0-2.05-0.77-3.82-2.32-5.33c-1.55-1.51-3.36-2.26-5.45-2.26
		c-2.16,0-4.13,0.78-5.91,2.35C277.88,21.24,276.99,22.99,276.99,24.92z"/>
	<path class="st0" d="M312.4,57.96V0h4.29v57.96H312.4z"/>
	<path class="st0" d="M337.67,35.77v-23.2c0-2.85-0.98-4.28-2.93-4.28c-0.31,0-0.71,0.03-1.21,0.09c-0.73,0.09-1.25,0.14-1.55,0.14
		c-1.23,0-1.84-0.64-1.84-1.91c0-1.35,0.85-2.03,2.54-2.03c0.27,0,0.56,0.02,0.87,0.06l2.84,0.35c0.92,0.12,2.08,0.17,3.47,0.17
		c0.97,0,2.12-0.06,3.47-0.17c3.16-0.27,5.55-0.41,7.18-0.41c2.47,0,4.59,0.19,6.36,0.58c2.54,0.54,4.54,1.74,5.99,3.59
		c1.45,1.85,2.17,4.1,2.17,6.72c0,3.63-1.25,6.41-3.74,8.35c-2.49,1.93-6.1,2.9-10.81,2.9h-4.12c-1.27,0-2.03,0-2.26,0h-0.12
		c-0.62,0-1.01,0.11-1.19,0.32c-0.17,0.21-0.26,0.7-0.26,1.47v1.15c0,4.89,0.14,7.85,0.43,8.89s1.13,1.56,2.52,1.56
		c0.43,0,0.83-0.06,1.22-0.17c0.85-0.08,1.37-0.12,1.56-0.12c1.2,0,1.8,0.62,1.8,1.85c0,1.39-0.85,2.09-2.55,2.09l-0.81-0.12
		l-2.9-0.41c-0.81-0.12-2.03-0.17-3.65-0.17c-1.35,0-2.45,0.06-3.3,0.17l-3.36,0.46c-0.08,0-0.19,0.02-0.35,0.06
		c-0.15,0-0.29,0-0.4,0c-1.74,0-2.61-0.68-2.61-2.03c0-0.54,0.17-0.99,0.52-1.36c0.35-0.37,0.77-0.55,1.27-0.55
		c0.43,0,0.95,0.06,1.56,0.17c0.27,0.08,0.68,0.12,1.22,0.12C336.69,40.11,337.67,38.66,337.67,35.77z M342.95,9.51
		c-0.27,0.39-0.4,1.45-0.4,3.19v8.58c0,1.04,0.73,1.64,2.2,1.8c-0.12,0,1,0,3.36,0c2.74,0,5.02-0.21,6.84-0.64
		c3.44-0.81,5.16-3.07,5.16-6.78c0-4.91-3.13-7.36-9.39-7.36C346.07,8.29,343.49,8.69,342.95,9.51z"/>
	<path class="st0" d="M376.97,16.14v1.59c2.01-2.82,4.69-4.23,8.06-4.23c2.7,0,4.9,0.76,6.58,2.29c1.68,1.53,2.52,3.49,2.52,5.88
		c0,1.7-0.42,3.08-1.27,4.14c-0.85,1.06-1.97,1.59-3.36,1.59c-0.89,0-1.64-0.27-2.26-0.81c-0.62-0.54-0.93-1.2-0.93-1.97
		c0-0.62,0.23-1.17,0.69-1.65c0.46-0.48,1-0.72,1.62-0.72c0.12,0,0.37,0.06,0.75,0.17c0.23-0.46,0.35-0.89,0.35-1.27
		c0-1.12-0.49-2.07-1.48-2.84c-0.98-0.77-2.21-1.16-3.68-1.16c-3.01,0-5.02,1.35-6.03,4.06c-0.62,1.66-0.93,4.17-0.93,7.53v3.83
		c0,2.59,0.02,4.04,0.06,4.35c0.19,2.2,0.79,3.3,1.8,3.3c0.5,0,1.02-0.07,1.56-0.2c0.42-0.1,0.79-0.15,1.1-0.15
		c1.24,0,1.85,0.61,1.85,1.83c0,1.33-0.79,2-2.37,2h-0.23c-0.58,0-1.45-0.07-2.63-0.2c-1.18-0.13-2.05-0.2-2.63-0.2
		c-1.54,0-2.75,0.04-3.64,0.12l-3.23,0.29c-1.58,0-2.37-0.68-2.37-2.03c0-1.2,0.74-1.8,2.22-1.8c0.39,0,0.68,0.02,0.88,0.06
		l0.88,0.17c0.39,0.08,0.66,0.12,0.82,0.12c0.97,0,1.5-0.89,1.58-2.67V34.6l-0.17-13.16c-0.12-2.28-0.69-3.42-1.74-3.42
		c-0.31,0-0.73,0.06-1.27,0.17c-0.54,0.12-0.97,0.17-1.27,0.17c-1.27,0-1.91-0.62-1.91-1.86c0-1.35,0.83-2.03,2.49-2.03
		c0.39,0,0.97,0.05,1.74,0.14c0.77,0.1,1.35,0.14,1.74,0.14c0.31,0,0.81-0.05,1.51-0.14c0.31-0.1,0.68-0.14,1.1-0.14
		C376.47,14.49,376.97,15.04,376.97,16.14z"/>
	<path class="st0" d="M410.01,44.46c-4.06,0-7.3-1.4-9.74-4.2c-2.43-2.8-3.65-6.56-3.65-11.27c0-4.71,1.23-8.47,3.68-11.27
		c2.45-2.8,5.75-4.2,9.88-4.2c4.21,0,7.54,1.37,9.97,4.12c2.43,2.74,3.65,6.47,3.65,11.19c0,4.71-1.26,8.5-3.77,11.36
		C417.52,43.03,414.18,44.46,410.01,44.46z M410.29,17.33c-2.7,0-4.83,0.95-6.37,2.84c-1.55,1.89-2.4,4.58-2.55,8.06v0.75
		c0,3.63,0.76,6.48,2.29,8.55c1.53,2.07,3.66,3.1,6.41,3.1c2.82,0,5.03-1.03,6.64-3.1c1.6-2.07,2.41-4.94,2.41-8.61
		C419.1,21.19,416.17,17.33,410.29,17.33z"/>
	<path class="st0" d="M425.13,48.22c0,0.81-0.35,1.56-1.04,2.26c1.04,0.77,2.11,1.16,3.2,1.16c2.18,0,3.75-0.64,4.7-1.91
		c0.95-1.27,1.43-3.32,1.43-6.14l0.06-18.2c0-3.4-0.1-5.5-0.29-6.29c-0.19-0.79-0.72-1.19-1.58-1.19c-0.43,0-0.98,0.08-1.64,0.23
		c-0.35,0.12-0.7,0.17-1.05,0.17c-1.25,0-1.87-0.62-1.87-1.85c0-1.28,0.81-1.91,2.43-1.91c0.58,0,1.08,0.02,1.51,0.06
		c1.24,0.12,2.11,0.17,2.61,0.17c0.31,0,0.79-0.05,1.45-0.14c0.66-0.1,1.14-0.14,1.45-0.14c1.12,0,1.68,0.62,1.68,1.85
		c0,0.19-0.02,0.58-0.06,1.16c-0.04,0.7-0.06,1.26-0.06,1.68c-0.04,0.62-0.1,2.01-0.17,4.17c-0.08,2.43-0.12,4.31-0.12,5.62v13.1
		c0,2.32-0.1,4.04-0.29,5.16c-0.35,1.82-1.04,3.36-2.09,4.64c-1.85,2.24-4.44,3.36-7.77,3.36c-2.32,0-4.25-0.58-5.8-1.74
		c-1.54-1.16-2.32-2.61-2.32-4.35c0-0.97,0.28-1.77,0.84-2.41c0.56-0.64,1.27-0.96,2.12-0.96c0.74,0,1.36,0.24,1.88,0.72
		C424.87,47,425.13,47.57,425.13,48.22z M434.87,11.48c-0.89,0-1.65-0.32-2.29-0.96c-0.64-0.64-0.96-1.4-0.96-2.29
		c0-0.89,0.32-1.64,0.96-2.26c0.64-0.62,1.4-0.93,2.29-0.93c0.89,0,1.66,0.32,2.32,0.96c0.66,0.64,0.98,1.38,0.98,2.23
		c0,0.89-0.33,1.65-0.98,2.29C436.53,11.16,435.76,11.48,434.87,11.48z"/>
	<path class="st0" d="M471.5,26.43c0,1.47-0.1,2.37-0.29,2.7c-0.19,0.33-0.75,0.49-1.68,0.49h-18.43c-0.5,0-0.83,0.07-0.98,0.2
		c-0.15,0.14-0.23,0.36-0.23,0.67c0,2.9,0.87,5.31,2.61,7.25c1.74,1.93,3.9,2.9,6.49,2.9c1.7,0,3.25-0.46,4.67-1.39
		c1.41-0.93,2.33-2.11,2.75-3.54l0.52-1.68c0.27-0.93,0.91-1.39,1.91-1.39c1.43,0,2.14,0.73,2.14,2.2c0,2.51-1.27,4.74-3.82,6.69
		c-2.55,1.95-5.45,2.93-8.7,2.93c-4.06,0-7.28-1.36-9.68-4.09c-2.4-2.72-3.59-6.38-3.59-10.98c0-4.71,1.27-8.54,3.83-11.48
		c2.55-2.94,5.87-4.41,9.97-4.41c3.63,0,6.63,1.22,8.98,3.65C470.32,19.59,471.5,22.68,471.5,26.43z M450.46,24.92
		c0,0.54,0.43,0.81,1.28,0.81h13.85c0.81,0,1.22-0.27,1.22-0.81c0-2.05-0.77-3.82-2.32-5.33c-1.55-1.51-3.36-2.26-5.45-2.26
		c-2.16,0-4.13,0.78-5.91,2.35C451.35,21.24,450.46,22.99,450.46,24.92z"/>
	<path class="st0" d="M492.65,24.34c0-1.54,0.97-2.43,2.9-2.67c-0.19-1.35-0.84-2.41-1.94-3.19c-1.1-0.77-2.52-1.16-4.26-1.16
		c-2.66,0-4.81,1.06-6.43,3.19c-1.62,2.13-2.43,4.95-2.43,8.46c0,3.63,0.76,6.48,2.29,8.55c1.53,2.07,3.64,3.1,6.35,3.1
		c1.7,0,3.18-0.48,4.43-1.45c1.26-0.97,2.12-2.3,2.58-4c0.39-1.35,0.62-2.12,0.7-2.32c0.42-0.77,1.04-1.16,1.85-1.16
		c0.66,0,1.2,0.21,1.62,0.64c0.42,0.43,0.64,0.97,0.64,1.62c0,0.97-0.31,2.13-0.93,3.48c-0.62,1.35-1.35,2.47-2.2,3.36
		c-2.28,2.43-5.24,3.65-8.87,3.65c-3.94,0-7.12-1.39-9.53-4.17c-2.42-2.78-3.62-6.43-3.62-10.95c0-4.79,1.25-8.63,3.74-11.51
		c2.49-2.88,5.81-4.32,9.94-4.32c3.09,0,5.66,0.84,7.71,2.52c2.05,1.68,3.07,3.82,3.07,6.4c0,1.43-0.4,2.61-1.19,3.54
		c-0.79,0.93-1.81,1.39-3.04,1.39c-0.97,0-1.77-0.29-2.41-0.87C492.97,25.91,492.65,25.19,492.65,24.34z"/>
	<path class="st0" d="M521.46,35.47v-3.71c0.04-1.58,0.73-2.38,2.08-2.38c1.35,0,2.03,0.89,2.03,2.67c0,4.21-0.54,7.15-1.61,8.81
		c-1.46,2.24-3.86,3.36-7.2,3.36c-3.07,0-5.26-0.99-6.56-2.96c-0.96-1.43-1.44-3.86-1.44-7.3V20.05c0-0.81-0.37-1.22-1.13-1.22h-1.9
		c-0.63,0-1.16-0.2-1.57-0.61c-0.41-0.41-0.62-0.9-0.62-1.48c0-0.54,0.2-1.02,0.61-1.45c0.41-0.42,0.86-0.64,1.36-0.64h2.26
		c0.66,0,0.98-0.37,0.98-1.1V7.59c0-1.47,0.75-2.2,2.26-2.2c1.39,0,2.09,0.73,2.09,2.2v6.2c0,0.58,0.35,0.87,1.04,0.87h6.32
		c1.47,0,2.2,0.68,2.2,2.03c0,1.43-0.79,2.14-2.38,2.14h-6.38c-0.54,0-0.81,0.41-0.81,1.22v14.26c0,4.06,1.35,6.09,4.05,6.09
		C519.91,40.4,521.34,38.76,521.46,35.47z"/>
</g>
<g>
</g>
<g>
</g>
<g>
</g>
<g>
</g>
<g>
</g>
<g>
</g>
<g>
</g>
<g>
</g>
<g>
</g>
<g>
</g>
<g>
</g>
<g>
</g>
<g>
</g>
<g>
</g>
<g>
</g>
</svg>
