<?xml version="1.0" encoding="utf-8"?>
<!-- Generator: Adobe Illustrator 24.0.0, SVG Export Plug-In . SVG Version: 6.00 Build 0)  -->
<svg version="1.1" id="Layer_1" xmlns="http://www.w3.org/2000/svg" xmlns:xlink="http://www.w3.org/1999/xlink" x="0px" y="0px"
	 viewBox="0 0 214.19 23.62" style="enable-background:new 0 0 214.19 23.62;" xml:space="preserve">
<style type="text/css">
	.st0{fill:#F7FEFF;}
</style>
<g>
	<path class="st0" d="M7.09,3.64l3.64,11.95l3.99-12.73c0.2-0.66,0.56-0.99,1.06-0.99h0.12c0.16,0,0.36,0.02,0.61,0.07
		c0.31,0.08,0.52,0.12,0.61,0.12c0.25,0.03,0.6,0.05,1.04,0.05c0.47,0,0.84-0.02,1.11-0.07l0.83-0.14c0.05-0.02,0.14-0.02,0.28-0.02
		c0.72,0,1.09,0.28,1.09,0.83c0,0.5-0.25,0.76-0.76,0.76c-0.13,0-0.31-0.02-0.55-0.06c-0.24-0.04-0.43-0.06-0.55-0.06
		c-0.8,0-1.21,0.59-1.21,1.77v1.65v2.08v2.01v3.73c0,1.18,0.39,1.77,1.18,1.77c0.16,0,0.33-0.02,0.52-0.07
		c0.35-0.03,0.55-0.05,0.61-0.05c0.5,0,0.76,0.25,0.76,0.76c0,0.57-0.34,0.85-1.02,0.85c0.03,0-0.09-0.02-0.35-0.05
		c-1.09-0.13-2.01-0.19-2.76-0.19c-0.74,0-1.45,0.06-2.12,0.17c-0.28,0.05-0.54,0.07-0.76,0.07c-0.61,0-0.92-0.26-0.92-0.79
		c0-0.54,0.32-0.81,0.95-0.81c0.16,0,0.28,0.01,0.36,0.03c0.35,0.04,0.56,0.06,0.62,0.06c0.57,0,0.93-0.59,1.07-1.77
		c0.03-0.25,0.05-1.05,0.05-2.41c0-0.52,0.02-1.27,0.05-2.26V7.76V3.59c0-0.09-0.04-0.14-0.12-0.14c-0.05,0-0.09,0.05-0.14,0.14
		l-4.35,13.47c-0.19,0.6-0.63,0.9-1.32,0.9c-0.41,0-0.71-0.06-0.91-0.18c-0.2-0.12-0.35-0.36-0.46-0.72L5.05,3.59
		C5.01,3.5,4.95,3.45,4.89,3.45c-0.06,0-0.09,0.05-0.09,0.14l0.14,10.92c0.02,1.14,0.33,1.71,0.94,1.71c0.17,0,0.41,0,0.71,0h0.28
		c0.61,0,0.92,0.27,0.92,0.8c0,0.54-0.32,0.8-0.95,0.8c-0.11,0-0.28-0.02-0.5-0.05c-0.35-0.05-0.72-0.1-1.11-0.17
		c-0.31-0.05-0.72-0.07-1.2-0.07c-0.87,0-1.43,0.02-1.68,0.07l-0.99,0.19c-0.03,0-0.08,0.01-0.14,0.02c-0.06,0-0.11,0-0.14,0
		C0.36,17.83,0,17.56,0,17.01c0-0.22,0.07-0.41,0.21-0.55c0.14-0.15,0.32-0.22,0.52-0.22c0.17,0,0.38,0.02,0.61,0.07
		c0.24,0.05,0.41,0.07,0.52,0.07c0.8,0,1.21-0.59,1.21-1.77V5.1c0-1.18-0.4-1.77-1.21-1.77c-0.13,0-0.31,0.02-0.57,0.06
		C1.05,3.43,0.86,3.45,0.73,3.45C0.24,3.45,0,3.2,0,2.69c0-0.55,0.35-0.83,1.06-0.83c0.06,0,0.17,0.01,0.31,0.02L2.2,1.98
		c0.41,0.05,0.79,0.07,1.16,0.07c0.3,0,0.71-0.03,1.22-0.09C5.08,1.9,5.46,1.87,5.69,1.87c0.61,0,1.02,0.39,1.23,1.16L7.09,3.64z"/>
	<path class="st0" d="M26.67,10.87v3.07c0,0.79,0.01,1.25,0.02,1.39c0.08,0.71,0.29,1.06,0.64,1.06c0.08,0,0.28-0.04,0.59-0.12
		c0.08-0.03,0.2-0.05,0.35-0.05c0.6,0,0.9,0.26,0.9,0.78c0,0.22-0.1,0.41-0.3,0.57s-0.45,0.24-0.75,0.24
		c-0.25,0-0.64-0.04-1.15-0.11c-0.51-0.07-0.9-0.11-1.15-0.11c-0.41,0-0.87,0.03-1.37,0.09c-0.62,0.08-1.03,0.12-1.23,0.12
		c-0.63,0-0.95-0.27-0.95-0.8c0-0.52,0.27-0.78,0.81-0.78c0.13,0,0.31,0.02,0.56,0.07c0.25,0.05,0.43,0.07,0.56,0.07
		c0.38,0,0.61-0.5,0.69-1.51c0-0.06,0-0.75,0-2.05v-1.94c0-1.31,0-1.99,0-2.05c-0.08-0.99-0.32-1.49-0.71-1.49
		c-0.13,0-0.31,0.03-0.54,0.08c-0.23,0.06-0.4,0.08-0.51,0.08c-0.57,0-0.86-0.25-0.86-0.76c0-0.54,0.35-0.8,1.04-0.8
		c0.3,0,0.51,0.01,0.64,0.02c0.5,0.06,0.83,0.09,0.97,0.09c0.13,0,0.32-0.02,0.58-0.06c0.26-0.04,0.45-0.06,0.58-0.06
		c0.46,0,0.69,0.31,0.69,0.92c0,0.06-0.01,0.16-0.02,0.28c-0.01,0.13-0.02,0.22-0.02,0.28c-0.01,0.13-0.03,0.61-0.04,1.46
		C26.67,9.53,26.67,10.19,26.67,10.87z M25.44,4.68c-0.36,0-0.67-0.13-0.93-0.39c-0.26-0.26-0.39-0.57-0.39-0.93
		c0-0.36,0.13-0.67,0.39-0.92c0.26-0.25,0.57-0.38,0.93-0.38s0.67,0.13,0.93,0.38c0.26,0.25,0.39,0.56,0.39,0.92
		c0,0.36-0.13,0.67-0.39,0.93C26.11,4.55,25.8,4.68,25.44,4.68z"/>
	<path class="st0" d="M33.78,6.63V7.3c0.95-1.2,2.2-1.8,3.78-1.8c0.85,0,1.65,0.22,2.41,0.65c0.76,0.43,1.27,0.97,1.54,1.62
		c0.22,0.54,0.33,1.24,0.33,2.1v4.49c0,0.68,0.01,1.08,0.02,1.2c0.08,0.54,0.29,0.8,0.64,0.8c0.14,0,0.33-0.02,0.56-0.06
		c0.23-0.04,0.39-0.06,0.48-0.06c0.2,0,0.38,0.07,0.53,0.21c0.15,0.14,0.22,0.32,0.22,0.52c0,0.24-0.09,0.43-0.28,0.59
		c-0.19,0.16-0.42,0.24-0.68,0.24c-0.22,0-0.58-0.03-1.09-0.09s-0.98-0.09-1.42-0.09c-0.41,0-0.75,0.02-1.02,0.05
		c-0.79,0.09-1.21,0.14-1.25,0.14c-0.63,0-0.94-0.28-0.94-0.83c0-0.49,0.27-0.73,0.82-0.73c0.13,0,0.27,0.02,0.43,0.05
		c0.3,0.06,0.5,0.09,0.58,0.09c0.38,0,0.59-0.43,0.63-1.3v-1.2v-1.44v-1.8c0-0.83-0.04-1.41-0.12-1.72
		c-0.14-0.6-0.45-1.06-0.92-1.39c-0.52-0.36-1.11-0.54-1.76-0.54c-1.25,0-2.16,0.45-2.71,1.35c-0.38,0.61-0.56,1.66-0.56,3.14v3.14
		c0,0.69,0.05,1.17,0.14,1.42c0.09,0.25,0.27,0.38,0.52,0.38c0.13,0,0.3-0.03,0.52-0.08c0.22-0.05,0.4-0.08,0.54-0.08
		c0.49,0,0.73,0.26,0.73,0.79c0,0.51-0.31,0.77-0.94,0.77c-0.13,0-0.54-0.05-1.23-0.14c-0.35-0.05-0.73-0.07-1.16-0.07
		c-0.33,0-0.77,0.03-1.32,0.09c-0.69,0.08-1.09,0.12-1.18,0.12c-0.66,0-0.99-0.27-0.99-0.8c0-0.5,0.26-0.76,0.77-0.76
		c0.08,0,0.23,0.02,0.45,0.07c0.22,0.05,0.43,0.07,0.64,0.07c0.48,0,0.73-0.46,0.75-1.37V12.4V9.54V8.72
		c-0.03-0.54-0.1-0.9-0.21-1.1c-0.1-0.2-0.28-0.3-0.54-0.3c-0.11,0-0.28,0.02-0.49,0.06c-0.22,0.04-0.38,0.06-0.49,0.06
		c-0.58,0-0.87-0.25-0.87-0.76c0-0.52,0.35-0.78,1.06-0.78c0.09,0,0.17,0.01,0.24,0.02l0.87,0.09c0.25,0,0.47-0.02,0.66-0.06
		c0.41-0.04,0.62-0.06,0.64-0.06C33.55,5.91,33.78,6.15,33.78,6.63z"/>
	<path class="st0" d="M50.5,5.5c1.56,0,2.72,0.61,3.5,1.82V4.94c0-0.63-0.02-1.02-0.05-1.16c-0.08-0.49-0.3-0.73-0.66-0.73
		c-0.13,0-0.3,0.02-0.53,0.07c-0.23,0.05-0.41,0.07-0.53,0.07c-0.58,0-0.87-0.25-0.87-0.76c0-0.52,0.39-0.78,1.18-0.78
		c0.12,0,0.35,0.02,0.68,0.05c0.5,0.05,0.76,0.07,0.78,0.07c0.14,0,0.35-0.02,0.61-0.06c0.27-0.04,0.47-0.06,0.61-0.06
		c0.44,0,0.66,0.32,0.66,0.95v0.26c-0.02,0.05-0.03,0.47-0.05,1.25c0,0.09-0.02,0.7-0.07,1.82c-0.03,0.79-0.05,1.39-0.05,1.8v2.32
		V14c0.02,1.04,0.06,1.69,0.14,1.94c0.08,0.25,0.27,0.38,0.58,0.38c0.21,0,0.37-0.02,0.48-0.05c0.26-0.03,0.43-0.05,0.53-0.05
		c0.59,0,0.89,0.26,0.89,0.78c0,0.54-0.35,0.8-1.06,0.8c-0.16,0-0.4-0.02-0.72-0.06c-0.32-0.04-0.56-0.06-0.72-0.06
		c-0.05,0-0.23,0.02-0.54,0.05c-0.19,0.05-0.35,0.07-0.5,0.07c-0.43,0-0.64-0.28-0.64-0.85v-0.12v-0.4
		c-0.83,1.12-2.04,1.68-3.63,1.68c-1.6,0-2.89-0.58-3.86-1.75c-0.97-1.17-1.46-2.69-1.46-4.58c0-1.91,0.48-3.43,1.44-4.57
		C47.61,6.07,48.89,5.5,50.5,5.5z M53.9,13.84c0.06-0.52,0.09-1.19,0.09-2.01c0-1.05-0.04-1.77-0.12-2.15
		c-0.14-0.79-0.48-1.4-1.02-1.84c-0.63-0.52-1.36-0.78-2.19-0.78c-1.11,0-1.98,0.42-2.6,1.25c-0.63,0.83-0.94,1.98-0.94,3.43
		c0,1.5,0.32,2.67,0.97,3.53c0.65,0.86,1.54,1.29,2.66,1.29c0.86,0,1.57-0.25,2.14-0.74C53.47,15.32,53.81,14.66,53.9,13.84z"/>
	<path class="st0" d="M63.49,23.62V0h1.75v23.62H63.49z"/>
	<path class="st0" d="M78.21,1.44c1.58,0,3.01,0.59,4.29,1.77c-0.06-0.22-0.09-0.35-0.09-0.38c-0.03-0.31-0.05-0.49-0.05-0.52
		c0-0.52,0.26-0.78,0.78-0.78c0.57,0,0.85,0.34,0.85,1.02c0,0.22-0.01,0.39-0.03,0.5l-0.18,1.13c-0.05,0.33-0.08,0.69-0.08,1.06
		c0,0.3,0.03,0.94,0.09,1.91v0.21c0,0.71-0.29,1.06-0.87,1.06c-0.55,0-0.83-0.39-0.83-1.16V6.57c0-1.09-0.36-1.94-1.07-2.57
		c-0.71-0.63-1.68-0.94-2.89-0.94c-1.52,0-2.72,0.59-3.58,1.77C73.7,6,73.27,7.62,73.27,9.68c0,2.19,0.44,3.9,1.33,5.13
		c0.89,1.23,2.12,1.84,3.7,1.84c1.21,0,2.15-0.36,2.81-1.07c0.66-0.71,0.99-1.72,0.99-3.04c0-0.54-0.09-0.91-0.27-1.13
		c-0.18-0.21-0.5-0.32-0.96-0.32c-0.13,0-0.31,0.01-0.54,0.02c-0.24,0.02-0.42,0.02-0.54,0.02c-0.76,0-1.13-0.27-1.13-0.8
		c0-0.55,0.32-0.83,0.97-0.83c0.21,0,0.43,0.02,0.69,0.05c0.99,0.14,1.79,0.21,2.39,0.21c0.77,0,1.59-0.07,2.46-0.21
		c0.19-0.03,0.4-0.05,0.64-0.05c0.63,0,0.95,0.26,0.95,0.78c0,0.22-0.08,0.41-0.25,0.57c-0.17,0.16-0.36,0.24-0.58,0.24
		c-0.19,0-0.33,0-0.42,0c-0.03,0-0.09,0-0.17,0c-0.08,0-0.14,0-0.19,0c-0.69,0-1.04,0.77-1.04,2.3v1.88c0,0.41,0.02,0.77,0.05,1.1
		c0.03,0.33,0.05,0.59,0.05,0.77c0,0.64-0.28,0.96-0.85,0.96c-0.55,0-0.83-0.28-0.83-0.83l0.05-0.57c0.02-0.14,0.03-0.39,0.05-0.73
		c-0.36,0.49-0.65,0.83-0.85,1.02c-0.91,0.82-2.18,1.23-3.8,1.23c-2.03,0-3.67-0.76-4.91-2.27s-1.87-3.49-1.87-5.93
		c0-2.61,0.64-4.7,1.91-6.26C74.35,2.22,76.06,1.44,78.21,1.44z"/>
	<path class="st0" d="M98.12,18.02c-1.29,0-2.09-0.56-2.39-1.68c-0.8,1.18-2.06,1.77-3.78,1.77c-1.28,0-2.29-0.32-3.06-0.94
		c-0.76-0.63-1.15-1.47-1.15-2.53c0-1.31,0.56-2.27,1.68-2.88c0.42-0.24,0.79-0.39,1.1-0.46c0.31-0.07,0.92-0.16,1.85-0.27
		c1.32-0.14,2.19-0.34,2.59-0.59c0.4-0.25,0.6-0.72,0.6-1.39c0-0.65-0.22-1.15-0.67-1.52c-0.45-0.37-1.07-0.56-1.88-0.56
		c-0.71,0-1.37,0.2-1.98,0.59c-0.24,0.16-0.35,0.32-0.35,0.5c0,0.06,0.07,0.14,0.21,0.24c0.22,0.16,0.33,0.43,0.33,0.8
		c0,0.32-0.11,0.57-0.34,0.78c-0.23,0.2-0.52,0.31-0.86,0.31c-0.41,0-0.75-0.14-1.03-0.43c-0.28-0.28-0.41-0.63-0.41-1.04
		c0-0.88,0.44-1.64,1.31-2.27c0.87-0.63,1.93-0.94,3.18-0.94c2.87,0,4.3,1.38,4.3,4.12v4.76c0,0.75,0.02,1.2,0.05,1.34
		c0.09,0.55,0.36,0.82,0.8,0.82c0.55,0,0.83-0.5,0.83-1.5v-1.15c0-0.5,0.24-0.75,0.72-0.75c0.51,0,0.77,0.38,0.77,1.13v0.12v1.35
		C100.5,17.27,99.69,18.02,98.12,18.02z M95.5,13.32v-1.68c-0.34,0.32-0.71,0.54-1.09,0.66c-0.38,0.13-1.07,0.24-2.06,0.33
		c-1.79,0.17-2.68,0.83-2.68,1.98c0,0.6,0.22,1.07,0.65,1.42c0.43,0.35,1.02,0.52,1.76,0.52c1.05,0,1.89-0.29,2.49-0.86
		C95.17,15.12,95.48,14.33,95.5,13.32z"/>
	<path class="st0" d="M107.85,14.46v-1.51c0.01-0.65,0.3-0.97,0.85-0.97c0.55,0,0.83,0.36,0.83,1.09c0,1.72-0.22,2.91-0.66,3.59
		c-0.59,0.91-1.57,1.37-2.93,1.37c-1.25,0-2.14-0.4-2.67-1.2c-0.39-0.58-0.59-1.57-0.59-2.98V8.17c0-0.33-0.15-0.5-0.46-0.5h-0.77
		c-0.26,0-0.47-0.08-0.64-0.25c-0.17-0.17-0.25-0.37-0.25-0.6c0-0.22,0.08-0.42,0.25-0.59c0.17-0.17,0.35-0.26,0.56-0.26h0.92
		c0.27,0,0.4-0.15,0.4-0.45V3.09c0-0.6,0.31-0.9,0.92-0.9c0.57,0,0.85,0.3,0.85,0.9v2.53c0,0.24,0.14,0.35,0.42,0.35h2.57
		c0.6,0,0.9,0.28,0.9,0.83c0,0.58-0.32,0.87-0.97,0.87h-2.6c-0.22,0-0.33,0.17-0.33,0.5v5.81c0,1.65,0.55,2.48,1.65,2.48
		C107.22,16.46,107.8,15.79,107.85,14.46z"/>
	<path class="st0" d="M121.46,10.77c0,0.6-0.04,0.96-0.12,1.1c-0.08,0.13-0.31,0.2-0.69,0.2h-7.51c-0.2,0-0.34,0.03-0.4,0.08
		c-0.06,0.06-0.09,0.15-0.09,0.27c0,1.18,0.35,2.17,1.06,2.95c0.71,0.79,1.59,1.18,2.65,1.18c0.69,0,1.33-0.19,1.9-0.57
		s0.95-0.86,1.12-1.44l0.21-0.69c0.11-0.38,0.37-0.57,0.78-0.57c0.58,0,0.87,0.3,0.87,0.9c0,1.02-0.52,1.93-1.56,2.73
		c-1.04,0.79-2.22,1.19-3.54,1.19c-1.65,0-2.97-0.56-3.94-1.67c-0.98-1.11-1.46-2.6-1.46-4.48c0-1.92,0.52-3.48,1.56-4.68
		c1.04-1.2,2.39-1.8,4.06-1.8c1.48,0,2.7,0.5,3.66,1.49C120.98,7.98,121.46,9.24,121.46,10.77z M112.88,10.16
		c0,0.22,0.17,0.33,0.52,0.33h5.64c0.33,0,0.5-0.11,0.5-0.33c0-0.83-0.31-1.56-0.94-2.17c-0.63-0.61-1.37-0.92-2.22-0.92
		c-0.88,0-1.68,0.32-2.41,0.96C113.25,8.66,112.88,9.37,112.88,10.16z"/>
	<path class="st0" d="M127.32,23.62V0h1.75v23.62H127.32z"/>
	<path class="st0" d="M137.61,14.58V5.12c0-1.16-0.4-1.74-1.2-1.74c-0.12,0-0.29,0.01-0.49,0.04c-0.3,0.04-0.51,0.06-0.63,0.06
		c-0.5,0-0.75-0.26-0.75-0.78c0-0.55,0.35-0.83,1.04-0.83c0.11,0,0.23,0.01,0.35,0.02l1.16,0.14c0.38,0.05,0.85,0.07,1.41,0.07
		c0.39,0,0.87-0.02,1.42-0.07c1.29-0.11,2.26-0.17,2.92-0.17c1.01,0,1.87,0.08,2.59,0.24c1.04,0.22,1.85,0.71,2.44,1.46
		s0.88,1.67,0.88,2.74c0,1.48-0.51,2.61-1.52,3.4c-1.02,0.79-2.48,1.18-4.41,1.18h-1.68c-0.52,0-0.83,0-0.92,0h-0.05
		c-0.25,0-0.41,0.04-0.48,0.13c-0.07,0.09-0.11,0.29-0.11,0.6v0.47c0,1.99,0.06,3.2,0.18,3.62s0.46,0.63,1.03,0.63
		c0.17,0,0.34-0.02,0.5-0.07c0.35-0.03,0.56-0.05,0.64-0.05c0.49,0,0.73,0.25,0.73,0.76c0,0.57-0.35,0.85-1.04,0.85l-0.33-0.05
		l-1.18-0.17c-0.33-0.05-0.83-0.07-1.49-0.07c-0.55,0-1,0.02-1.35,0.07l-1.37,0.19c-0.03,0-0.08,0.01-0.14,0.02
		c-0.06,0-0.12,0-0.17,0c-0.71,0-1.06-0.28-1.06-0.83c0-0.22,0.07-0.41,0.21-0.55c0.14-0.15,0.32-0.22,0.52-0.22
		c0.17,0,0.39,0.02,0.64,0.07c0.11,0.03,0.28,0.05,0.5,0.05C137.21,16.35,137.61,15.76,137.61,14.58z M139.76,3.87
		c-0.11,0.16-0.17,0.59-0.17,1.3v3.5c0,0.43,0.3,0.67,0.9,0.73c-0.05,0,0.41,0,1.37,0c1.12,0,2.05-0.09,2.79-0.26
		c1.4-0.33,2.1-1.25,2.1-2.76c0-2-1.28-3-3.83-3C141.04,3.38,139.98,3.54,139.76,3.87z"/>
	<path class="st0" d="M153.63,6.58v0.65c0.82-1.15,1.91-1.72,3.28-1.72c1.1,0,2,0.31,2.68,0.93c0.69,0.62,1.03,1.42,1.03,2.4
		c0,0.69-0.17,1.26-0.52,1.69c-0.35,0.43-0.8,0.65-1.37,0.65c-0.36,0-0.67-0.11-0.92-0.33c-0.25-0.22-0.38-0.49-0.38-0.8
		c0-0.25,0.09-0.48,0.28-0.67c0.19-0.2,0.41-0.3,0.66-0.3c0.05,0,0.15,0.02,0.31,0.07c0.09-0.19,0.14-0.36,0.14-0.52
		c0-0.46-0.2-0.84-0.6-1.16c-0.4-0.31-0.9-0.47-1.5-0.47c-1.23,0-2.05,0.55-2.46,1.65c-0.25,0.68-0.38,1.7-0.38,3.07v1.56
		c0,1.06,0.01,1.65,0.02,1.77c0.08,0.9,0.32,1.35,0.73,1.35c0.2,0,0.42-0.03,0.64-0.08c0.17-0.04,0.32-0.06,0.45-0.06
		c0.5,0,0.76,0.25,0.76,0.74c0,0.54-0.32,0.81-0.96,0.81h-0.09c-0.24,0-0.59-0.03-1.07-0.08c-0.48-0.05-0.84-0.08-1.07-0.08
		c-0.63,0-1.12,0.02-1.48,0.05l-1.32,0.12c-0.64,0-0.96-0.28-0.96-0.83c0-0.49,0.3-0.73,0.91-0.73c0.16,0,0.28,0.01,0.36,0.02
		l0.36,0.07c0.16,0.03,0.27,0.05,0.33,0.05c0.4,0,0.61-0.36,0.64-1.09v-1.2l-0.07-5.36c-0.05-0.93-0.28-1.39-0.71-1.39
		c-0.13,0-0.3,0.02-0.52,0.07c-0.22,0.05-0.39,0.07-0.52,0.07c-0.52,0-0.78-0.25-0.78-0.76c0-0.55,0.34-0.83,1.02-0.83
		c0.16,0,0.39,0.02,0.71,0.06c0.31,0.04,0.55,0.06,0.71,0.06c0.13,0,0.33-0.02,0.61-0.06c0.13-0.04,0.28-0.06,0.45-0.06
		C153.42,5.91,153.63,6.13,153.63,6.58z"/>
	<path class="st0" d="M167.09,18.12c-1.65,0-2.98-0.57-3.97-1.71c-0.99-1.14-1.49-2.67-1.49-4.59c0-1.92,0.5-3.45,1.5-4.59
		c1-1.14,2.34-1.71,4.03-1.71c1.72,0,3.07,0.56,4.06,1.68c0.99,1.12,1.49,2.64,1.49,4.56c0,1.92-0.51,3.46-1.54,4.63
		C170.16,17.53,168.79,18.12,167.09,18.12z M167.21,7.06c-1.1,0-1.97,0.39-2.6,1.16c-0.63,0.77-0.98,1.87-1.04,3.28v0.31
		c0,1.48,0.31,2.64,0.93,3.48c0.62,0.84,1.49,1.26,2.61,1.26c1.15,0,2.05-0.42,2.7-1.26c0.65-0.84,0.98-2.01,0.98-3.51
		C170.8,8.64,169.6,7.06,167.21,7.06z"/>
	<path class="st0" d="M173.26,19.65c0,0.33-0.14,0.64-0.42,0.92c0.43,0.31,0.86,0.47,1.3,0.47c0.89,0,1.53-0.26,1.92-0.78
		c0.39-0.52,0.58-1.35,0.58-2.5l0.02-7.42c0-1.39-0.04-2.24-0.12-2.56c-0.08-0.32-0.29-0.48-0.64-0.48c-0.17,0-0.4,0.03-0.67,0.09
		c-0.14,0.05-0.29,0.07-0.43,0.07c-0.51,0-0.76-0.25-0.76-0.76c0-0.52,0.33-0.78,0.99-0.78c0.24,0,0.44,0.01,0.61,0.02
		c0.5,0.05,0.86,0.07,1.06,0.07c0.13,0,0.32-0.02,0.59-0.06c0.27-0.04,0.46-0.06,0.59-0.06c0.46,0,0.68,0.25,0.68,0.76
		c0,0.08-0.01,0.24-0.02,0.47c-0.02,0.28-0.02,0.51-0.02,0.69c-0.02,0.25-0.04,0.82-0.07,1.7c-0.03,0.99-0.05,1.76-0.05,2.29v5.34
		c0,0.94-0.04,1.65-0.12,2.1c-0.14,0.74-0.42,1.37-0.85,1.89c-0.76,0.91-1.81,1.37-3.17,1.37c-0.94,0-1.73-0.24-2.36-0.71
		c-0.63-0.47-0.94-1.06-0.94-1.77c0-0.39,0.11-0.72,0.34-0.98c0.23-0.26,0.52-0.39,0.86-0.39c0.3,0,0.56,0.1,0.77,0.3
		C173.15,19.15,173.26,19.38,173.26,19.65z M177.23,4.68c-0.36,0-0.67-0.13-0.93-0.39c-0.26-0.26-0.39-0.57-0.39-0.93
		c0-0.36,0.13-0.67,0.39-0.92c0.26-0.25,0.57-0.38,0.93-0.38c0.36,0,0.68,0.13,0.94,0.39s0.4,0.56,0.4,0.91
		c0,0.36-0.13,0.67-0.4,0.93C177.9,4.55,177.59,4.68,177.23,4.68z"/>
	<path class="st0" d="M192.15,10.77c0,0.6-0.04,0.96-0.12,1.1c-0.08,0.13-0.31,0.2-0.69,0.2h-7.51c-0.2,0-0.34,0.03-0.4,0.08
		c-0.06,0.06-0.09,0.15-0.09,0.27c0,1.18,0.35,2.17,1.06,2.95c0.71,0.79,1.59,1.18,2.65,1.18c0.69,0,1.33-0.19,1.9-0.57
		s0.95-0.86,1.12-1.44l0.21-0.69c0.11-0.38,0.37-0.57,0.78-0.57c0.58,0,0.87,0.3,0.87,0.9c0,1.02-0.52,1.93-1.56,2.73
		c-1.04,0.79-2.22,1.19-3.54,1.19c-1.65,0-2.97-0.56-3.94-1.67c-0.98-1.11-1.46-2.6-1.46-4.48c0-1.92,0.52-3.48,1.56-4.68
		c1.04-1.2,2.39-1.8,4.06-1.8c1.48,0,2.7,0.5,3.66,1.49C191.67,7.98,192.15,9.24,192.15,10.77z M183.58,10.16
		c0,0.22,0.17,0.33,0.52,0.33h5.64c0.33,0,0.5-0.11,0.5-0.33c0-0.83-0.31-1.56-0.94-2.17c-0.63-0.61-1.37-0.92-2.22-0.92
		c-0.88,0-1.68,0.32-2.41,0.96C183.94,8.66,183.58,9.37,183.58,10.16z"/>
	<path class="st0" d="M200.78,9.92c0-0.63,0.39-0.99,1.18-1.09c-0.08-0.55-0.34-0.98-0.79-1.3c-0.45-0.31-1.03-0.47-1.74-0.47
		c-1.09,0-1.96,0.43-2.62,1.3c-0.66,0.87-0.99,2.02-0.99,3.45c0,1.48,0.31,2.64,0.93,3.48c0.62,0.84,1.48,1.26,2.59,1.26
		c0.69,0,1.29-0.2,1.81-0.59c0.51-0.39,0.86-0.94,1.05-1.63c0.16-0.55,0.25-0.87,0.28-0.95c0.17-0.31,0.42-0.47,0.76-0.47
		c0.27,0,0.49,0.09,0.66,0.26c0.17,0.17,0.26,0.39,0.26,0.66c0,0.39-0.13,0.87-0.38,1.42c-0.25,0.55-0.55,1.01-0.9,1.37
		c-0.93,0.99-2.13,1.49-3.61,1.49c-1.61,0-2.9-0.57-3.89-1.7s-1.48-2.62-1.48-4.46c0-1.95,0.51-3.52,1.52-4.69
		c1.02-1.17,2.37-1.76,4.05-1.76c1.26,0,2.31,0.34,3.14,1.03c0.83,0.69,1.25,1.56,1.25,2.61c0,0.58-0.16,1.06-0.48,1.44
		c-0.32,0.38-0.74,0.57-1.24,0.57c-0.39,0-0.72-0.12-0.98-0.35C200.91,10.56,200.78,10.27,200.78,9.92z"/>
	<path class="st0" d="M212.52,14.46v-1.51c0.01-0.65,0.3-0.97,0.85-0.97c0.55,0,0.83,0.36,0.83,1.09c0,1.72-0.22,2.91-0.66,3.59
		c-0.59,0.91-1.57,1.37-2.93,1.37c-1.25,0-2.14-0.4-2.67-1.2c-0.39-0.58-0.59-1.57-0.59-2.98V8.17c0-0.33-0.15-0.5-0.46-0.5h-0.77
		c-0.26,0-0.47-0.08-0.64-0.25c-0.17-0.17-0.25-0.37-0.25-0.6c0-0.22,0.08-0.42,0.25-0.59c0.17-0.17,0.35-0.26,0.56-0.26h0.92
		c0.27,0,0.4-0.15,0.4-0.45V3.09c0-0.6,0.31-0.9,0.92-0.9c0.57,0,0.85,0.3,0.85,0.9v2.53c0,0.24,0.14,0.35,0.42,0.35h2.57
		c0.6,0,0.9,0.28,0.9,0.83c0,0.58-0.32,0.87-0.97,0.87h-2.6c-0.22,0-0.33,0.17-0.33,0.5v5.81c0,1.65,0.55,2.48,1.65,2.48
		C211.88,16.46,212.47,15.79,212.52,14.46z"/>
</g>
</svg>
