<?xml version="1.0" standalone="no"?>
<!DOCTYPE svg PUBLIC "-//W3C//DTD SVG 20010904//EN"
 "http://www.w3.org/TR/2001/REC-SVG-20010904/DTD/svg10.dtd">
<svg version="1.0" xmlns="http://www.w3.org/2000/svg"
 width="700.000000pt" height="700.000000pt" viewBox="0 0 700.000000 700.000000"
 preserveAspectRatio="xMidYMid meet">
<metadata>
Created by potrace 1.14, written by Peter Selinger 2001-2017
</metadata>
<g transform="translate(0.000000,700.000000) scale(0.100000,-0.100000)"
fill="#000000" stroke="none">
<path d="M5205 4869 c-539 -42 -899 -210 -1037 -484 -33 -65 -54 -129 -62
-185 -45 -338 109 -562 479 -698 86 -32 209 -68 264 -77 19 -3 38 -8 41 -10 4
-3 25 -7 46 -11 22 -3 57 -9 79 -14 22 -5 72 -14 110 -20 39 -6 81 -13 95 -15
33 -5 173 -23 233 -30 26 -3 66 -7 90 -10 23 -3 85 -9 137 -15 472 -52 639
-94 718 -184 71 -81 49 -216 -50 -306 -36 -34 -156 -93 -228 -113 -62 -18
-200 -44 -275 -53 -83 -10 -486 -12 -550 -4 -33 4 -87 11 -120 14 -77 7 -152
20 -240 41 -38 9 -77 18 -86 20 -43 9 -171 50 -251 81 -90 34 -299 135 -328
157 -8 7 -30 20 -48 30 l-32 18 -14 -33 c-8 -18 -48 -117 -89 -220 l-75 -188
51 -29 c172 -97 518 -227 685 -257 14 -3 28 -7 32 -9 6 -4 268 -50 335 -59
163 -22 575 -29 740 -13 416 40 747 167 940 361 133 134 194 270 200 451 7
187 -35 305 -150 421 -97 97 -218 163 -410 220 -86 26 -329 79 -410 89 -58 7
-99 13 -135 20 -14 2 -47 7 -75 10 -27 3 -84 10 -125 15 -41 5 -99 11 -128 14
-28 4 -67 8 -85 11 -17 2 -57 6 -87 10 -272 28 -481 72 -595 125 -105 48 -145
102 -141 186 3 55 36 117 82 153 66 52 212 105 344 125 169 26 586 27 740 2
14 -3 72 -12 130 -21 252 -40 499 -116 703 -216 46 -23 59 -26 63 -14 21 54
121 441 116 447 -12 11 -179 78 -274 109 -111 36 -248 71 -388 98 -123 24
-157 29 -350 51 -114 14 -490 19 -615 9z"/>
<path d="M4 4831 c-2 -2 -4 -590 -4 -1305 l0 -1301 268 -1 267 0 5 968 5 968
54 -103 c29 -56 99 -190 156 -297 56 -107 137 -262 180 -345 42 -82 90 -172
105 -200 15 -27 65 -122 110 -210 46 -88 102 -196 125 -240 23 -44 82 -156
130 -250 49 -93 103 -197 121 -230 l33 -60 238 0 238 0 53 100 c29 55 87 165
129 245 41 80 97 186 123 235 26 50 75 144 110 210 69 132 150 286 215 410 23
44 80 152 125 240 46 88 105 201 132 250 26 50 65 125 85 167 21 42 40 77 43
78 3 0 6 -432 5 -961 0 -630 3 -963 10 -967 6 -4 127 -7 271 -7 l261 0 0 1300
c0 715 -3 1302 -8 1305 -14 9 -719 4 -728 -6 -9 -10 -19 -28 -264 -494 -27
-52 -60 -113 -72 -135 -12 -22 -50 -94 -85 -160 -34 -66 -79 -151 -100 -190
-69 -128 -127 -239 -180 -340 -68 -130 -155 -296 -193 -365 -16 -30 -59 -112
-96 -182 -36 -71 -68 -128 -71 -128 -3 0 -26 42 -53 93 -26 50 -65 126 -88
167 -22 41 -67 125 -99 185 -31 61 -74 142 -95 180 -46 85 -96 180 -160 300
-26 50 -60 113 -75 140 -15 28 -32 60 -38 73 -7 12 -17 32 -24 45 -6 12 -39
74 -73 137 -34 63 -88 165 -120 225 -32 61 -68 128 -80 150 -12 22 -52 97 -89
167 -37 70 -73 131 -79 135 -12 7 -716 11 -723 4z"/>
</g>
</svg>
